<svg width="48.479" height="56.695" viewBox="0 0 12.827 15.001" xmlns="http://www.w3.org/2000/svg"><path d="M78.604 130.959c0-1.423.394-2.576 1.026-3.46 0-.001 0 0 0 0 0 1.749.434 2.364 1.381 2.364.632 0 1.283-.462 1.283-1.25 0-.712-.493-2-.493-3.385 0-1.385.473-2.865 2.407-3.961-.434 1.115-.611 2.058-.611 2.827 0 2.038 1.262 2.961 2.387 2.961.906 0 1.852-.575 1.855-2.241 0-.003.004-.005.006-.002.608.652.882 1.4.882 2.147 0 1.193-.67 2.25-.67 3.212 0 .788.65 1.25 1.282 1.25 1.125 0 1.46-.98 1.46-2.596.336.558.632 1.654.632 2.596 0 2.808-2.723 4.846-5.762 4.846 2.565-.942 3.039-2.192 3.039-3.595-.632 1.095-1.283 1.249-1.599 1.249-1.934 0 .158-3.596-3.217-6.096.553 1.154.77 2.154.77 2.961 0 1.731-.967 2.674-1.894 2.674-.785 0-1.57-.61-1.89-1.903 0-.003-.005-.002-.005 0 .005 1.82.562 3.542 3.02 4.71-3.849-.615-5.289-2.961-5.289-5.308" style="fill:#fff;fill-opacity:1;fill-rule:nonzero;stroke:none;stroke-width:.352778" transform="translate(-78.604 -121.267)"/></svg>