<svg width="173.857" height="172.995" viewBox="0 0 46 45.772" xmlns="http://www.w3.org/2000/svg"><defs><clipPath clipPathUnits="userSpaceOnUse" id="a"><path d="M-512.699 139.188H82.577v-841.89h-595.276Z" style="stroke-width:.999998"/></clipPath></defs><g transform="matrix(.35278 0 0 -.35278 22.32 43.486)" clip-path="url(#a)"><path d="M0 0V-2.746a62.964 62.964 0 0 0-7.815.729 9.1 9.1 0 0 1 1.358-.085c2.143-.01 3.326.638 4.344 1.212C-1.451-.526-.856-.197 0 0m-14.661.182c1.953-.01 2.829-.505 3.86-1.072.746-.421 1.574-.895 2.813-1.105A60.556 60.556 0 0 0-16.45-.011c.492.119 1.057.189 1.789.193m0 2.864c1.953-.011 2.829-.517 3.86-1.083C-9.784 1.388-8.6.751-6.457.762c2.143-.011 3.326.627 4.344 1.201.662.364 1.257.705 2.113.901V1.04C-1.123.816-1.917.396-2.62 0c-1.03-.568-1.883-1.063-3.837-1.073-1.953.01-2.819.505-3.849 1.073-1.017.573-2.212 1.221-4.355 1.212-1.502.007-2.518-.311-3.352-.697-.672.229-1.344.467-2.005.719.583.217 1.07.475 1.52.729 1.03.567 1.884 1.072 3.837 1.083m0 2.853c1.953-.01 2.829-.505 3.86-1.072 1.017-.574 2.201-1.212 4.344-1.202 2.143-.01 3.326.628 4.344 1.202.662.364 1.257.694 2.113.89V3.904c-1.123-.224-1.917-.645-2.62-1.04-1.03-.568-1.883-1.072-3.837-1.083-1.953.011-2.819.515-3.849 1.083-1.017.574-2.212 1.222-4.355 1.212-2.142.011-3.326-.638-4.344-1.212-.791-.436-1.48-.833-2.641-.998a61.103 61.103 0 0 0-7.751 3.873c.909-.194 1.524-.534 2.21-.912 1.017-.574 2.202-1.212 4.344-1.202 1.692-.007 2.778.387 3.666.837.236.121.465.244.679.365.106.058.208.116.312.171.245.041.496.065.755.065h1.746s-.129.276-.366.729c.401.07.847.105 1.39.107m0 2.864c1.954-.012 2.7-.492 3.687-1.062.489-.286 1.031-.604 1.746-.836.716-.234 1.6-.377 2.771-.376 1.469.006 2.899.614 4.29 1.18.743.308 1.469.586 2.167.794V6.768c-1.123-.224-1.917-.655-2.62-1.051-1.03-.567-1.883-1.062-3.837-1.073-1.953.011-2.819.506-3.849 1.073-1.017.574-2.212 1.222-4.355 1.212a8.408 8.408 0 0 1-1.897-.193c-.236.447-.495.966-.798 1.534.68.29 1.463.487 2.695.493m-16.374 0c1.952-.01 2.818-.506 3.848-1.072 1.017-.575 2.202-1.212 4.344-1.202.257 0 .492.005.723.022l1.088-1.663a7.676 7.676 0 0 0-1.811-.204c-1.952.011-2.807.506-3.837 1.073-1.018.574-2.213 1.222-4.355 1.212-.097 0-.177-.008-.27-.011-.732.47-1.456.96-2.167 1.459.624.231 1.362.38 2.437.386m47.151 1.513c.907-.604 5.539-8.07 5.713-9.74V.504a61.3 61.3 0 0 0-9.324-2.381l.075.139 3.536 6.157zm-30.777 1.351c1.953-.01 2.829-.516 3.86-1.083C-9.784 9.97-8.6 9.333-6.457 9.343c2.143-.01 3.326.627 4.344 1.201.662.364 1.257.704 2.113.901V9.546c-.868-.23-1.716-.591-2.555-.933-1.388-.574-2.735-1.11-3.902-1.105-1.085.001-1.845.137-2.447.333-.902.291-1.491.736-2.307 1.169-.813.43-1.845.788-3.45.783-1.402.007-2.386-.271-3.191-.622-.231.43-.462.883-.711 1.341.024.014.04.018.065.032 1.03.567 1.884 1.073 3.837 1.083zm-16.374 0c1.952-.01 2.818-.516 3.848-1.083.813-.459 1.737-.949 3.169-1.126l1.24-1.91h-.065c-1.952.011-2.807.506-3.837 1.073-1.018.574-2.213 1.223-4.355 1.212-1.538.008-2.584-.319-3.428-.719-.448.327-.877.659-1.315.998.325.155.623.312.905.472 1.03.567 1.886 1.073 3.838 1.083m55.872 1.899v-.869h5.228v.869h3.266V8.753h1.962v4.773h8.43A61.692 61.692 0 0 0 28.966 3.432l-.593 1.062-5.121 9.01zm-55.862.954c.602.002 1.224-.106 1.855-.289.715-.208 1.445-.501 2.177-.805.178-.073.36-.141.539-.214l.571-.901.378-.579.722-1.084c-.742.201-1.294.504-1.897.837-1.018.573-2.213 1.221-4.355 1.212-2.142.009-3.328-.639-4.345-1.212-.438-.242-.852-.47-1.326-.654-.596.48-1.179.968-1.757 1.469 1.149.165 2.286.662 3.418 1.126.237.099.474.196.711.29 1.134.45 2.249.807 3.309.804m64.939 2.693.948-1.91h-1.973v.644c0 .599.715 1.047 1.025 1.266m-1.025 2.413h.874c.772 0 3.439-3.602 3.924-4.323l-1.973-.01-1.606 2.928-1.197-.997zm2.404.215h1.736v-1.942l3.773-.021-.722-2.575c-1.793.04-3.954 3.3-4.787 4.538m9.142.225h5.39a61.915 61.915 0 0 0-4.28-4.763h-4.592c.509 2.172 1.877 3.694 3.482 4.763m-71.148.375c1.63-.104-.024-1.458 4.269-1.458a125.91 125.91 0 0 1 2.253-3.915l.065-.108c.083-.135.159-.249.226-.354.128-.201.266-.439.41-.654l.582-.858c.15.076.297.146.431.225.33.193.636.396.938.558.692.37 1.443.638 2.911.643 1.953-.01 2.807-.506 3.837-1.072.018-.01.036-.012.054-.022 1.005-.567 2.186-1.19 4.291-1.18a8.506 8.506 0 0 1 1.66.151c1.097.207 1.879.602 2.565.987.927.296 1.306.76 2.221.836v-1.684c-1.123-.224-1.917-.655-2.62-1.051-1.03-.568-1.883-1.074-3.837-1.083-1.953.009-2.819.515-3.849 1.083-1.017.573-2.212 1.221-4.355 1.212-2.142.009-3.326-.639-4.344-1.212-.021-.012-.033-.032-.054-.043-.117.214-.237.439-.356.654l-1.239 2.156c-1.034 1.672-2.264 3.743-2.447 4.087l-2.62-.011zm6.458 4.173h19.166c.588 0 .601-.101 1.089-.215v-.654c-.488-.112-.501-.214-1.089-.214h-19.166c-.589 0-.601.102-1.089.214v.654c.488.114.5.215 1.089.215m45.307 4.344v-13.44h-2.608c-.959 0-2.412 3.82-2.835 4.762zm-62.965 11.048h14.596c1.345 0 2.347-2.545 2.911-3.615.427-.811 2.328-3.406 2.328-4.194 0-.539-4.582-2.881-5.379-3.314-1.037-.565-1.753-.982-2.824-1.523-1.472-.743-2.804.001-4-.569-1.031.686-7.589 11.66-7.632 13.215M29.85 53.631c-2.371 0-4.14-.424-4.14-2.821h8.495c0 2.397-1.77 2.821-4.14 2.821zm-54.029.429c-1.791 0-3.698-.433-3.698-2.166V50.81h8.915v1.084c0 1.553-1.66 2.166-3.266 2.166zm27.887 2.596h59.678c-.369-13.074-4.833-25.111-12.192-34.892h-7.632c-.605-.403-1.671-1.963-2.394-1.963h-2.382v1.523h-7.632v-5.202h-.873v28.403h2.835v3.464h.647c.356 0 .657.126.657.429 0 .5-.155.655-.657.655H25.71c-.769 0-1.704-2.123-3.148-2.939-1.159-.655-2.846-1.54-3.471-2.617a373.007 373.007 0 0 0-4.635-7.756c-.884-1.446-9.012-15.347-9.012-15.521 0-1.602 3.482-1.101 3.482-3.25V6.371c0-.84-4.507-7.21-5.218-8.023zm-63.235 0H0V26.537c-1.264.105-3.401 5.059-4.183 6.243-1.445 2.19-2.571 4.475-3.88 6.746-.73 1.264-1.098 1.875-1.855 3.368-.944 1.867-.889 1.814-2.716 2.714-1.526.752-5.659 3.465-7.19 3.465h-8.279c-.502 0-.647-.155-.647-.655 0-.499.145-.654.647-.654h1.089v-3.239h-16.332v-5.631h2.167c2.925 0 4.293-4.515 5.454-6.511.95-1.633 4.14-6.015 4.14-8.024h-1.531c-2.527 0-5.009-1.132-6.134-2.552-1.66-2.099-1.702-3.28-1.703-6.694a2.411 2.411 0 0 1 .097-.654c-.233.224-.471.437-.701.665-10.748 10.698-17.515 25.321-17.97 41.532M0 63.156v-2.81h-3.277c-.759 0-1.571 1.614-1.951 2.178zm-22.228 7.809c.355-1.324 3.736-4.839 4.862-5.792 3.053-2.59 2.847-.423 5.81-4.827h-12.408v8.667c0 1.183 1.019 1.474 1.736 1.952m36.824 3.046c1.923-.042 3.779-5.04 4.743-6.564 1.453-2.298 2.758-4.968 4.194-7.101h-8.937zm-30.065.859v-8.249l-.173-.139-4.56 5.223zM-44.51 86.819l-.593-1.416c-.694-1.646-1.019-3.893-1.197-5.75a45.112 45.112 0 0 1-.172-2.595c-.679.302-1.302.783-1.865 1.373-1.103 1.15-1.963 2.699-2.523 3.958-.28.629-.476 1.19-.614 1.587-.069.197-.127.353-.162.461a1.712 1.712 0 0 0-.043.161l-.409 1.395-.572-1.33c-.611-1.446-.83-3.04-.83-4.634.006-4.302 1.627-8.635 2.199-10.029-1.222-.561-2.545-.891-3.6-1.073a18.752 18.752 0 0 0-1.865-.225c-.095-.006-.14.001-.14 0l-.96-.043.561-.772c1.597-2.212 4.009-3.773 6.015-4.795 2.007-1.02 3.624-1.494 3.644-1.502l.291.987-.065.011c-.334.106-1.93.633-3.773 1.609-1.596.845-3.367 2.032-4.689 3.55 1.252.138 3.49.517 5.487 1.545l.442.214-.216.451s-.024.066-.086.214c-.442 1.036-2.225 5.569-2.221 9.858 0 .966.104 1.903.313 2.799.254-.643.598-1.426 1.045-2.252.529-.973 1.205-1.992 2.027-2.853.822-.858 1.805-1.564 2.975-1.877l.647-.172v.665c0 .002-.002.351.022.933.035.874.128 2.256.323 3.701.113.839.266 1.691.464 2.478.213-.667.484-1.476.83-2.339.423-1.058.948-2.188 1.563-3.196.617-1.008 1.322-1.898 2.167-2.478l.442-.311.291.461c0 .001.069.125.204.333.204.31.534.793.884 1.276.349.482.727.96 1.003 1.234l-.722.74c-.471-.472-1.008-1.224-1.456-1.867-.182-.261-.343-.489-.474-.686-.51.458-1.017 1.085-1.466 1.823-.858 1.407-1.543 3.144-2.016 4.516a37.165 37.165 0 0 0-.55 1.706c-.061.211-.098.389-.129.504-.031.115-.054.171-.054.171zm25.828.504 2.771-4.441c-.379-.516-8.138-4.988-8.926-4.988-.459 0-4.423 3.778-4.797 4.334l7.826.032zm-4.635 6.618h.442c.847 0 1.012-1.133 1.531-1.727-.74-1.391-2.852-6.082-4.582-6.082h-9.357v.654c0 .783 4.848 3.246 5.8 3.765.731.399 5.977 3.39 6.166 3.39m44.446 6.071h8.936v-5.857c-1.627-.377-1.742-2.166-2.835-2.166h-6.101zm-42.915 9.107c-1.339 0-3.266-.603-3.266-1.738v-1.298h7.847v1.298c0 1.135-1.927 1.738-3.266 1.738zm53.587 2.756a61.772 61.772 0 0 0 13.615-10.211c10.701-10.651 17.45-25.192 17.959-41.318H32.674c-1.332 0-1.247.914-1.833 1.866-.494.804-1.092 1.655-1.509 2.392-1.031 1.828-1.714 3.158-2.749 4.849-.669 1.095-5.454 9.305-5.454 9.964v8.238h2.824c.69 0 .752-.534.949-1.212l5.163 2.521v-.654c0-1.129-2.609-2.299-2.609-4.774v-.429c0-2.379 1.011-5.213 3.482-5.213 3.613 0 3.413 4.622 3.698 8.034-1.852-.153-2.178-2.587-2.178-4.558-.428-.226-.639-.429-1.304-.429h-.431c-.642 0-1.315 1.237-1.315 1.941v.654c0 1.842 2.393 1.984 2.393 5.428.611.291 1.088.086 1.088.858v3.475c0 .656-.257.593-.873.644-.113.486-.215.497-.215 1.083v4.988h1.315c.969 0 1.121-.298 1.304-1.083 1.285.106 2.073 1.083 3.709 1.083h3.266c-.026 1.133-1.846 4.559-3.266 4.559h-6.328zm-16.332 2.006c-2.012 0-3.061-.57-3.061-2.596h7.632c0 2.026-1.039 2.596-3.051 2.596zm-21.711 4.13-1.002-.44c-1.99-.876-3.753-2.535-5.045-3.969a27.509 27.509 0 0 1-1.919-2.381c-.414.086-.871.279-1.326.568-.839.533-1.656 1.316-2.253 1.974-.299.33-.542.626-.711.837-.085.105-.15.199-.194.257l-.054.086-.248.322-.367-.15c-4.634-1.858-8.046-5.22-10.294-8.11-1.909-2.454-2.977-4.57-3.267-5.17a2.685 2.685 0 0 0-.765-.085c-.782-.002-1.858.161-2.717.332-.43.085-.807.182-1.078.247-.271.064-.43.096-.431.096l-.474.129-.14-.472a2.376 2.376 0 0 1-.108-.697c.008-1.035.477-2.216.916-3.197.196-.432.393-.819.55-1.115a12.602 12.602 0 0 0-2.275-.193c-.655 0-1.241.033-1.649.075-.204.021-.364.049-.474.064-.11.015-.173.022-.173.022l-.593.096v-.6c.003-.658.262-1.27.615-1.813 1.067-1.615 3.037-2.83 3.061-2.853l.55.858-.032.021c-.173.113-.995.672-1.757 1.416-.382.371-.745.787-1.003 1.201a3.3 3.3 0 0 0-.291.569 17.814 17.814 0 0 1 1.746-.086c.962.001 2.081.086 3.18.376l.658.171-.334.59-.076.107a19.543 19.543 0 0 0-.927 1.867c-.345.803-.627 1.71-.647 2.338.267-.062.61-.149.992-.225.894-.177 1.995-.353 2.911-.354.538.008 1.005.051 1.423.3l.14.086.054.129.054.107c.242.508 1.44 2.888 3.611 5.556 2.106 2.593 5.124 5.44 9.066 7.112.294-.371.829-1.01 1.498-1.663.516-.503 1.112-1.016 1.757-1.426.646-.409 1.345-.725 2.081-.783l.302-.022.172.258.033.042c.172.253.996 1.457 2.209 2.768.98 1.062 2.219 2.176 3.525 2.95a14.419 14.419 0 0 1-.194-2.317c0-1.79.346-4.056 1.639-6.179l.873.526c-1.163 1.905-1.477 3.986-1.477 5.653 0 .923.099 1.714.194 2.274.048.279.095.495.13.643l.043.172.011.053zm9.95 1.533c9.485-.268 18.419-2.664 26.357-6.736v-8.237H19.609v3.25c0 .75.361.402.862 1.083-.226.337-.28.644-.862.644h-6.975c-1.509 0-2.337-2.616-2.964-3.755-.471-.852-2.264-3.342-2.264-4.258V60.346H3.708Zm-3.708 0V65.763c0-1.11-5.013-1.298-6.317-1.298-.705 1.047-2.393 3.211-2.393 4.773v6.715c0 1.441 5.482 3.196 6.209 4.269l-10.553 18.031 1.724 1.105c-.671.997-4.341 4.987-5.659 4.987h-8.063c-.394 0-.602-.104-.658-.429.255-.364.035-.439.658-.439h.657v-3.894h.658c-.109-1.296-6.335-4.109-7.676-4.945-1.505-.937-6.61-4.162-8.451-4.162h-.658c-1.465 0-4.785 3.644-6.662 3.529l5.358-4.612c-.114-.486-.226-.498-.226-1.083v-.215c0-.872 1.561-3.058 2.188-3.475l2.145-.022 1.563-2.585h3.04c.628-.418 5.67-4.69 5.67-5.191 0-1.563-3.061-1.52-3.061-2.811V60.346h-29.02c.509 16.126 7.269 30.667 17.97 41.318A61.43 61.43 0 0 0 0 119.544m1.93 3.723c-33.723 0-61.469-25.482-64.852-58.148v-.021c-.016-.15-.029-.301-.043-.451a58.803 58.803 0 0 1-.108-1.265c-.04-.532-.081-1.064-.108-1.599v-.053a67.546 67.546 0 0 1-.065-1.631v-.032a66.421 66.421 0 0 1 0-3.346v-.022c.014-.549.037-1.095.065-1.641v-.043c.028-.538.067-1.074.108-1.609.027-.362.064-.722.097-1.083.017-.186.024-.373.043-.558l.011-.086c.002-.025.008-.05.011-.075C-59.498 18.97-31.771-6.479 1.93-6.479c34.296 0 62.41 26.356 65.002 59.821.002.021-.001.043 0 .064.041.535.08 1.071.108 1.609v.043a65.65 65.65 0 0 1 0 6.725c-.027.535-.068 1.067-.108 1.599-2.561 33.495-30.684 59.885-65.002 59.885" style="fill:#fff;fill-opacity:1;fill-rule:nonzero;stroke:none"/></g></svg>